<svg width="633" height="676" viewBox="0 0 633 676" fill="none" xmlns="http://www.w3.org/2000/svg">
<circle cx="316" cy="372" r="304" fill="url(#paint0_linear)"/>
<path d="M57.3988 250.361L124.28 317.273C125.803 317.781 127.158 318.289 128.682 318.798L55.7056 245.787C56.3828 247.481 56.8908 249.005 57.3988 250.361Z" fill="#C7DDFF"/>
<path d="M51.8112 230.88L143.92 323.033C145.106 323.202 146.122 323.371 147.307 323.71L51.3032 227.661C51.3032 228.678 51.6419 229.863 51.8112 230.88Z" fill="#C7DDFF"/>
<path d="M49.7793 214.956L159.667 324.896C160.683 324.896 161.529 325.066 162.545 325.066L49.7793 212.076C49.7793 213.093 49.7793 214.109 49.7793 214.956Z" fill="#C7DDFF"/>
<path d="M49.9487 201.235L173.72 325.066C174.567 325.066 175.414 324.896 176.26 324.896L50.118 198.694C49.9487 199.372 49.9487 200.388 49.9487 201.235Z" fill="#C7DDFF"/>
<path d="M51.8112 186.328C51.6419 187.175 51.4725 187.852 51.3032 188.699L186.081 323.541C186.25 323.541 186.25 323.541 186.419 323.541L187.605 322.355L51.8112 186.328Z" fill="#C7DDFF"/>
<path d="M194.546 315.24L54.52 175.147C54.3507 175.825 54.1814 176.503 53.8428 177.35L193.192 316.765L194.546 315.24Z" fill="#C7DDFF"/>
<path d="M201.489 308.295L58.0761 164.814C57.7374 165.492 57.5681 166.169 57.2295 166.847L199.965 309.65L201.489 308.295Z" fill="#C7DDFF"/>
<path d="M208.43 301.35L62.4779 155.328C62.1393 156.005 61.8007 156.514 61.6313 157.191L207.245 302.874L208.43 301.35Z" fill="#C7DDFF"/>
<path d="M215.373 294.404L67.3885 146.35C67.0498 146.858 66.7112 147.535 66.3726 148.044L214.018 295.759L215.373 294.404Z" fill="#C7DDFF"/>
<path d="M222.315 287.459L73.1452 138.218C72.8066 138.727 72.2986 139.235 71.96 139.743L220.96 288.814L222.315 287.459Z" fill="#C7DDFF"/>
<path d="M229.257 280.514L79.4102 130.595C78.9023 131.104 78.5636 131.612 78.0557 132.12L227.902 282.038L229.257 280.514Z" fill="#C7DDFF"/>
<path d="M236.199 273.568L86.1827 123.481C85.6747 123.989 85.1668 124.328 84.8281 124.836L234.844 274.923L236.199 273.568Z" fill="#C7DDFF"/>
<path d="M243.141 266.623L93.6328 117.044C93.1248 117.382 92.6168 117.891 92.1089 118.229L241.786 267.978L243.141 266.623Z" fill="#C7DDFF"/>
<path d="M250.083 259.678L101.76 111.284C101.252 111.623 100.575 111.962 100.067 112.47L248.728 261.202L250.083 259.678Z" fill="#C7DDFF"/>
<path d="M257.025 252.732L110.395 106.033C109.718 106.371 109.21 106.71 108.533 107.049L255.501 254.087L257.025 252.732Z" fill="#C7DDFF"/>
<path d="M263.967 245.787L119.708 101.459C119.03 101.798 118.353 101.967 117.845 102.306L262.612 247.142L263.967 245.787Z" fill="#C7DDFF"/>
<path d="M270.909 238.841L129.697 97.5627C129.02 97.7321 128.343 98.0709 127.666 98.2403L269.554 240.197L270.909 238.841Z" fill="#C7DDFF"/>
<path d="M277.851 231.896L140.703 94.683C140.026 94.8524 139.179 95.0218 138.502 95.1912L276.666 233.421L277.851 231.896Z" fill="#C7DDFF"/>
<path d="M282.084 222.24L152.555 92.6502C151.709 92.8196 150.862 92.8196 150.016 92.989L281.745 224.781C281.915 223.934 282.084 223.087 282.084 222.24Z" fill="#C7DDFF"/>
<path d="M282.931 209.197L165.593 91.8032C164.746 91.8032 163.73 91.8032 162.884 91.8032L282.931 211.907C282.931 211.06 282.931 210.044 282.931 209.197Z" fill="#C7DDFF"/>
<path d="M282.084 194.459L180.324 92.6502C179.308 92.4808 178.292 92.4809 177.276 92.3115L282.423 197.508C282.253 196.492 282.253 195.475 282.084 194.459Z" fill="#C7DDFF"/>
<path d="M278.698 177.011L197.764 96.0381C196.578 95.6993 195.224 95.3605 194.039 95.0217L279.714 180.738C279.375 179.552 279.036 178.366 278.698 177.011Z" fill="#C7DDFF"/>
<path d="M269.385 153.973L220.791 105.355C218.929 104.339 217.066 103.492 215.204 102.645L272.095 159.563C271.248 157.53 270.401 155.836 269.385 153.973Z" fill="#C7DDFF"/>
<path d="M560.952 581.196C600.507 581.196 632.573 549.115 632.573 509.541C632.573 469.966 600.507 437.885 560.952 437.885C521.396 437.885 489.33 469.966 489.33 509.541C489.33 549.115 521.396 581.196 560.952 581.196Z" fill="url(#paint1_linear)"/>
<path d="M166.271 42C74.3308 42 0 116.536 0 208.35C0 300.333 74.5001 374.699 166.271 374.699C258.211 374.699 332.541 300.164 332.541 208.35C332.541 116.536 258.211 42 166.271 42ZM166.271 364.366C80.2569 364.366 10.4977 294.574 10.4977 208.519C10.4977 122.464 80.2569 52.6721 166.271 52.6721C252.284 52.6721 322.044 122.464 322.044 208.519C322.044 294.574 252.284 364.366 166.271 364.366Z" fill="url(#paint2_linear)"/>
<path d="M597.158 67.5901C591.74 67.5901 589.2 63.0164 586.83 58.9508C584.629 55.224 582.766 52.0054 579.21 52.0054C575.655 52.0054 573.792 55.224 571.591 58.9508C569.221 63.0164 566.681 67.5901 561.263 67.5901C555.844 67.5901 553.305 63.0164 550.934 58.9508C548.733 55.224 546.871 52.0054 543.315 52.0054C539.759 52.0054 537.897 55.224 535.696 58.9508C533.325 63.0164 530.785 67.4207 525.367 67.4207C519.949 67.4207 517.409 62.847 515.039 58.7814C512.838 55.0546 510.975 51.836 507.419 51.836C503.864 51.836 502.001 55.0546 499.8 58.7814C497.43 62.847 494.89 67.4207 489.472 67.4207C484.053 67.4207 481.514 62.847 479.143 58.7814C476.942 55.0546 475.08 51.836 471.524 51.836C470.677 51.836 470 51.1584 470 50.3114C470 49.4644 470.677 48.7869 471.524 48.7869C476.942 48.7869 479.482 53.3606 481.852 57.4262C484.053 61.153 485.916 64.3716 489.472 64.3716C493.027 64.3716 494.89 61.153 497.091 57.4262C499.461 53.3606 502.001 48.7869 507.419 48.7869C512.838 48.7869 515.377 53.3606 517.748 57.2568C519.949 60.9836 521.811 64.2022 525.367 64.2022C528.923 64.2022 530.785 60.9836 532.986 57.2568C535.357 53.1912 537.897 48.6175 543.315 48.6175C548.733 48.6175 551.273 53.1912 553.643 57.2568C555.844 60.9836 557.707 64.2022 561.263 64.2022C564.818 64.2022 566.681 60.9836 568.882 57.2568C571.252 53.1912 573.792 48.7869 579.21 48.7869C584.629 48.7869 587.168 53.3606 589.539 57.4262C591.74 61.153 593.602 64.3716 597.158 64.3716C600.714 64.3716 602.576 61.153 604.777 57.4262C607.148 53.3606 609.688 48.7869 615.106 48.7869C615.952 48.7869 616.63 49.4644 616.63 50.3114C616.63 51.1584 615.952 51.836 615.106 51.836C611.55 51.836 609.688 55.0546 607.487 58.7814C605.116 63.0164 602.407 67.5901 597.158 67.5901Z" fill="#CCE9FF"/>
<path d="M597.158 43.0273C591.74 43.0273 589.2 38.4535 586.83 34.3879C584.629 30.6612 582.766 27.4426 579.21 27.4426C575.655 27.4426 573.792 30.6612 571.591 34.3879C569.221 38.4535 566.681 43.0273 561.263 43.0273C555.844 43.0273 553.305 38.4535 550.934 34.3879C548.733 30.6612 546.871 27.4426 543.315 27.4426C539.759 27.4426 537.897 30.6612 535.696 34.3879C533.325 38.4535 530.785 42.8579 525.367 42.8579C519.949 42.8579 517.409 38.2841 515.039 34.2185C512.838 30.4918 510.975 27.2732 507.419 27.2732C503.864 27.2732 502.001 30.4918 499.8 34.2185C497.43 38.2841 494.89 42.8579 489.472 42.8579C484.053 42.8579 481.514 38.2841 479.143 34.2185C476.942 30.4918 475.08 27.2732 471.524 27.2732C470.677 27.2732 470 26.5956 470 25.7486C470 24.9016 470.677 24.224 471.524 24.224C476.942 24.224 479.482 28.7978 481.852 32.8634C484.053 36.5901 485.916 39.8087 489.472 39.8087C493.027 39.8087 494.89 36.5901 497.091 32.8634C499.461 28.7978 502.001 24.224 507.419 24.224C512.838 24.224 515.377 28.7978 517.748 32.694C519.949 36.4207 521.811 39.6393 525.367 39.6393C528.923 39.6393 530.785 36.4207 532.986 32.694C535.357 28.6284 537.897 24.0546 543.315 24.0546C548.733 24.0546 551.273 28.6284 553.643 32.694C555.844 36.4207 557.707 39.6393 561.263 39.6393C564.818 39.6393 566.681 36.4207 568.882 32.694C571.252 28.6284 573.792 24.224 579.21 24.224C584.629 24.224 587.168 28.7978 589.539 32.8634C591.74 36.5901 593.602 39.8087 597.158 39.8087C600.714 39.8087 602.576 36.5901 604.777 32.8634C607.148 28.7978 609.688 24.224 615.106 24.224C615.952 24.224 616.63 24.9016 616.63 25.7486C616.63 26.5956 615.952 27.2732 615.106 27.2732C611.55 27.2732 609.688 30.4918 607.487 34.2185C605.116 38.6229 602.407 43.0273 597.158 43.0273Z" fill="#CCE9FF"/>
<path d="M597.158 18.6339C591.74 18.6339 589.2 14.0601 586.83 9.99453C584.629 6.26776 582.766 3.04918 579.21 3.04918C575.655 3.04918 573.792 6.26776 571.591 9.99453C569.221 14.0601 566.681 18.6339 561.263 18.6339C555.844 18.6339 553.305 14.0601 550.934 9.99453C548.733 6.26776 546.871 3.04918 543.315 3.04918C539.759 3.04918 537.897 6.26776 535.696 9.99453C533.325 14.0601 530.785 18.6339 525.367 18.6339C519.949 18.6339 517.409 14.0601 515.039 9.99453C512.838 6.26776 510.975 3.04918 507.419 3.04918C503.864 3.04918 502.001 6.26776 499.8 9.99453C497.43 14.0601 494.89 18.6339 489.472 18.6339C484.053 18.6339 481.514 14.0601 479.143 9.99453C476.942 6.26776 475.08 3.04918 471.524 3.04918C470.677 3.04918 470 2.37158 470 1.52459C470 0.677596 470.677 0 471.524 0C476.942 0 479.482 4.57377 481.852 8.63934C484.053 12.3661 485.916 15.5847 489.472 15.5847C493.027 15.5847 494.89 12.3661 497.091 8.63934C499.461 4.57377 502.001 0 507.419 0C512.838 0 515.377 4.57377 517.748 8.63934C519.949 12.3661 521.811 15.5847 525.367 15.5847C528.923 15.5847 530.785 12.3661 532.986 8.63934C535.357 4.57377 537.897 0 543.315 0C548.733 0 551.273 4.57377 553.643 8.63934C555.844 12.3661 557.707 15.5847 561.263 15.5847C564.818 15.5847 566.681 12.3661 568.882 8.63934C571.252 4.57377 573.792 0 579.21 0C584.629 0 587.168 4.57377 589.539 8.63934C591.74 12.3661 593.602 15.5847 597.158 15.5847C600.714 15.5847 602.576 12.3661 604.777 8.63934C607.148 4.57377 609.688 0 615.106 0C615.952 0 616.63 0.677596 616.63 1.52459C616.63 2.37158 615.952 3.04918 615.106 3.04918C611.55 3.04918 609.688 6.26776 607.487 9.99453C605.116 14.0601 602.407 18.6339 597.158 18.6339Z" fill="#CCE9FF"/>
<path d="M611.652 99.5083L597.598 113.568L583.375 99.5083L578.126 104.76L592.18 118.989L578.126 133.049L583.375 138.47L597.598 124.241L611.652 138.47L617.07 133.049L602.847 118.989L617.07 104.76L611.652 99.5083Z" fill="#E9F0FE"/>
<defs>
<linearGradient id="paint0_linear" x1="763" y1="187.5" x2="376" y2="498" gradientUnits="userSpaceOnUse">
<stop stop-color="#DEEAFF"/>
<stop offset="1" stop-color="#FAFAFB"/>
</linearGradient>
<linearGradient id="paint1_linear" x1="473.532" y1="597.083" x2="637.586" y2="433.107" gradientUnits="userSpaceOnUse">
<stop stop-color="white"/>
<stop offset="1" stop-color="#CEE0FF"/>
</linearGradient>
<linearGradient id="paint2_linear" x1="-38.4991" y1="413.368" x2="285.818" y2="89.2051" gradientUnits="userSpaceOnUse">
<stop stop-color="#EFF8FF"/>
<stop offset="0.456691" stop-color="#DBEFFF"/>
<stop offset="1" stop-color="#C4E5FF"/>
</linearGradient>
</defs>
</svg>
